<svg width="192" height="51" viewBox="0 0 192 51" fill="none" xmlns="http://www.w3.org/2000/svg">
<path d="M50.6813 46.4341V45.1982H46.8784L45.9331 46.1197L48.7835 48.8772H45.9331V50.1059H49.7874L50.7107 49.1844L47.809 46.4341H50.6813Z" fill="white"/>
<path d="M80.8289 48.2129L80.1328 48.8772H79.5392L78.8358 48.2058V45.1982H77.5608V48.6344L79.0849 50.1059H80.5871L82.0819 48.6344V45.1982H80.8289V48.2129Z" fill="white"/>
<path d="M62.3557 46.4341H63.4989V50.1059H64.7445V46.4341H65.8876V45.1982H62.3557V46.4341Z" fill="white"/>
<path d="M146.038 46.4341V45.1982H142.235L141.289 46.1197L144.14 48.8772H141.289V50.1059H145.144L146.067 49.1844L143.165 46.4341H146.038Z" fill="white"/>
<path d="M93.9174 45.1982V50.1059H96.3574L98.2626 48.2629V47.0485L96.3648 45.1982H93.9174ZM96.9876 47.8342L95.9031 48.8772H95.1777V46.4341H95.9251L96.9876 47.4628V47.8342Z" fill="white"/>
<path d="M126.128 45.1982L124.237 47.0485V48.2629L126.142 50.1059H127.644L129.513 48.2629V47.0485L127.622 45.1982H126.128ZM128.253 47.8557L127.183 48.8772H126.589L125.512 47.8342V47.4628L126.575 46.4341H127.168L128.253 47.47V47.8557Z" fill="white"/>
<path d="M109.937 46.4341H110.501V48.8772H109.937V50.1059H112.333V48.8772H111.761V46.4341H112.333V45.1982H109.937V46.4341Z" fill="white"/>
<path d="M4.35138 7.3208V8.13243H0V37.3742L4.78928 32.5714V28.2144H5.60287L5.59203 12.9943H15.1737L7.23 20.9333V28.2145L22.4662 12.9943V7.3208H4.35138ZM21.7702 12.7561L20.9566 13.5665V8.01683H21.7702V12.7561Z" fill="white"/>
<path d="M105.203 7.3208V8.13243H100.851V37.3742L105.641 32.5714V28.2144H106.454L106.443 12.9943H116.025L108.081 20.9333V28.2145L123.318 12.9943V7.3208H105.203ZM122.622 12.7561L121.808 13.5665V8.01683H122.622V12.7561Z" fill="white"/>
<path d="M183.821 14.6577H184.646L192 7.31836H190.529L190.527 7.32088H183.4L172.212 18.4823V11.0731H171.396V7.32091H166.587V31.8905L175.937 22.5671L183.199 29.8508H190.932L179.787 18.6789L183.821 14.6577ZM190.011 7.81543H190.824L184.498 14.1198H183.684L190.011 7.81543Z" fill="white"/>
<path d="M68.138 7.3208V8.13243H64.3858V12.9943H69.4873V29.8507L75.0467 24.3081V12.9943H80.1686L85.8431 7.3208H68.138ZM79.9656 12.4976H79.152L83.8254 7.81742H84.639L79.9656 12.4976Z" fill="white"/>
<path d="M57.9577 7.3208V19.7649L45.5344 7.3208H41.3777V29.8507L46.4138 24.8233V16.6931L59.56 29.8507H62.1802V26.0985H62.9937V7.3208H57.9577ZM56.2087 19.7642L44.2602 7.79255H45.0738L57.0223 19.7642H56.2087Z" fill="white"/>
<path d="M34.6385 24.21L33.824 25.0244H29.8029L30.6174 24.21H30.6157L36.06 18.7661V18.4054L30.6515 12.9943H38.9591V8.74431H39.9843V7.3208H23.8503V12.9943L29.4542 18.6021L18.1916 29.8507H40.0169V24.21L34.6385 24.21ZM33.9654 17.1412L35.3586 18.5351V18.628L33.9562 20.0303L33.9654 17.1412Z" fill="white"/>
<path d="M135.528 24.21L134.714 25.0244H130.693L131.507 24.21H131.505L136.95 18.7661V18.4054L131.541 12.9943H139.849V8.74431H140.874V7.3208H124.74V12.9943L130.344 18.6021L119.081 29.8507H135.282L140.907 24.21L135.528 24.21ZM134.855 17.1412L136.248 18.5351V18.628L134.846 20.0303L134.855 17.1412Z" fill="white"/>
<path d="M99.3563 0V5.81353H95.72L94.9866 6.54703H93.8395L91.6491 8.73452H90.611L99.3563 0Z" fill="white"/>
<path d="M87.249 25.0135H83.2333L84.0372 24.2102H84.0357L93.323 14.9293V29.8509L99.3732 23.8106L99.3548 6.6084H96.3115L95.5937 7.32096H94.2748L92.2843 9.31348H90.0438L82.6068 16.7421H84.0237L70.8778 29.8509H86.265L91.9245 24.2102H88.0511L87.249 25.0135ZM83.9806 16.145L90.2781 9.84066H91.0917L84.7942 16.145H83.9806Z" fill="white"/>
<path d="M93.323 31.3751L99.3732 25.3394V24.5161L93.323 30.5564V31.3751Z" fill="white"/>
<path d="M159.145 31.3751L165.195 25.3394V24.5161L159.145 30.5564V31.3751Z" fill="white"/>
<path d="M158.056 9.31335H155.866L148.429 16.742H149.845L136.699 29.8507H152.087L157.746 24.21H153.873L153.071 25.0134H149.055L149.859 24.21H149.857L159.145 14.9292V29.8507L165.195 23.8104L165.177 7.3208H160.034L158.056 9.31335ZM150.616 16.1448H149.802L156.1 9.84052H156.913L150.616 16.1448Z" fill="white"/>
</svg>
